<?xml version="1.0" standalone="no"?>
<!DOCTYPE svg PUBLIC "-//W3C//DTD SVG 20010904//EN"
 "http://www.w3.org/TR/2001/REC-SVG-20010904/DTD/svg10.dtd">
<svg version="1.0" xmlns="http://www.w3.org/2000/svg"
 width="512.000000pt" height="512.000000pt" viewBox="0 0 512.000000 512.000000"
 preserveAspectRatio="xMidYMid meet">

<g transform="translate(0.000000,512.000000) scale(0.100000,-0.100000)"
fill="#000000" stroke="none">
<path d="M2553 4175 c-229 -62 -381 -267 -371 -501 l3 -84 -305 0 c-430 0
-400 29 -400 -388 l0 -290 -87 0 c-222 -2 -399 -136 -468 -355 -31 -96 -32
-173 -4 -263 68 -222 256 -364 481 -364 l78 0 0 -311 c0 -260 3 -316 16 -344
28 -61 45 -64 392 -69 l312 -4 6 26 c3 15 9 43 13 63 4 19 46 160 92 312 l84
277 273 0 c149 0 272 -1 272 -2 0 -2 32 -149 70 -328 38 -179 70 -328 70 -333
0 -4 169 -6 376 -5 l377 3 21 28 c20 28 21 39 24 456 l3 427 -23 34 c-16 24
-37 39 -65 48 -39 13 -45 12 -114 -18 -123 -54 -236 -37 -310 48 -43 49 -59
91 -59 159 0 190 174 296 362 220 79 -32 103 -33 145 -7 64 38 64 39 60 457
-2 244 -7 392 -14 417 -6 22 -26 53 -42 70 l-31 31 -315 3 -314 3 1 93 c1 149
-43 258 -145 359 -124 124 -304 175 -464 132z m222 -254 c52 -23 107 -85 130
-145 25 -66 16 -143 -26 -210 -43 -68 -48 -120 -17 -166 37 -55 63 -58 431
-59 l327 -1 -2 -222 -3 -222 -55 2 c-171 8 -368 -111 -445 -267 -27 -54 -45
-76 -45 -53 0 4 -23 118 -50 252 -28 135 -55 269 -61 298 l-11 53 -288 -1
-289 -1 -5 -27 c-17 -82 -90 -497 -121 -682 -19 -118 -38 -227 -41 -242 l-6
-28 454 -2 453 -3 28 -52 c37 -69 126 -149 212 -189 74 -36 191 -58 244 -48
l31 7 0 -232 0 -231 -159 0 c-88 0 -162 4 -165 8 -2 4 -32 136 -66 292 -34
157 -64 295 -67 308 l-5 22 -487 0 -488 0 -95 -312 -96 -313 -131 -3 -131 -3
0 328 c0 193 -4 343 -10 365 -24 86 -106 110 -208 61 -214 -103 -437 110 -338
322 38 84 111 134 207 142 50 5 66 1 124 -26 78 -36 117 -39 162 -11 57 35 58
37 61 388 l3 322 322 0 c189 0 337 4 359 10 87 25 112 111 59 204 -60 104 -60
203 0 285 29 40 87 84 125 94 47 12 141 6 179 -12z m24 -1238 c28 -142 51
-261 51 -265 0 -5 -83 -8 -185 -8 -125 0 -185 3 -185 11 0 6 20 121 45 257 25
135 45 250 45 254 0 4 40 8 89 8 l88 0 52 -257z" fill="#0197F6"/>
</g>
</svg>
